<?xml version="1.0" encoding="utf-8"?>
<!-- Generated by IcoMoon.io -->
<svg version="1.1" xmlns="http://www.w3.org/2000/svg" xmlns:xlink="http://www.w3.org/1999/xlink" width="900" height="72" viewBox="0 0 900 72">
<svg id="icon-check" width="10" height="10" viewBox="0 0 26 26" x="0" y="0" fill="#fff">
<path d="M20.901 5.734l-11.151 11.151-4.651-4.651c-0.424-0.424-1.109-0.424-1.532 0s-0.424 1.109 0 1.532l5.417 5.417c0.424 0.424 1.109 0.424 1.532 0l11.917-11.917c0.424-0.424 0.424-1.109 0-1.532s-1.109-0.424-1.532 0z"></path>
</svg>
<svg id="icon-chevron-down" width="26" height="26" viewBox="0 0 26 26" x="46" y="0" fill="#fff">
<path d="M5.734 10.516l6.5 6.5c0.424 0.424 1.109 0.424 1.532 0l6.5-6.5c0.424-0.424 0.424-1.109 0-1.532s-1.109-0.424-1.532 0l-5.734 5.734-5.734-5.734c-0.424-0.424-1.109-0.424-1.532 0s-0.424 1.109 0 1.532z"></path>
</svg>
<svg id="icon-chevron-up" width="26" height="26" viewBox="0 0 26 26" x="92" y="0" fill="#fff">
<path d="M20.266 15.484l-6.5-6.5c-0.424-0.424-1.109-0.424-1.532 0l-6.5 6.5c-0.424 0.424-0.424 1.109 0 1.532s1.109 0.424 1.532 0l5.734-5.734 5.734 5.734c0.424 0.424 1.109 0.424 1.532 0s0.424-1.109 0-1.532z"></path>
</svg>
<svg id="icon-angle-left" width="10" height="26" viewBox="0 0 10 26" x="0" y="46">
<path d="M9.097 7.893c0 0.116-0.058 0.247-0.145 0.334l-5.702 5.702 5.702 5.702c0.087 0.087 0.145 0.218 0.145 0.334s-0.058 0.247-0.145 0.334l-0.725 0.725c-0.087 0.087-0.218 0.145-0.334 0.145s-0.247-0.058-0.334-0.145l-6.761-6.761c-0.087-0.087-0.145-0.218-0.145-0.334s0.058-0.247 0.145-0.334l6.761-6.761c0.087-0.087 0.218-0.145 0.334-0.145s0.247 0.058 0.334 0.145l0.725 0.725c0.087 0.087 0.145 0.203 0.145 0.334z"></path>
</svg>
<svg id="icon-angle-right" width="9" height="26" viewBox="0 0 9 26" x="46" y="46">
<path d="M8.633 13.929c0 0.116-0.058 0.247-0.145 0.334l-6.761 6.761c-0.087 0.087-0.218 0.145-0.334 0.145s-0.247-0.058-0.334-0.145l-0.725-0.725c-0.087-0.087-0.145-0.203-0.145-0.334 0-0.116 0.058-0.247 0.145-0.334l5.702-5.702-5.702-5.702c-0.087-0.087-0.145-0.218-0.145-0.334s0.058-0.247 0.145-0.334l0.725-0.725c0.087-0.087 0.218-0.145 0.334-0.145s0.247 0.058 0.334 0.145l6.761 6.761c0.087 0.087 0.145 0.218 0.145 0.334z"></path>
</svg>
</svg>
